<?xml version="1.0" standalone="no"?>
<!DOCTYPE svg PUBLIC "-//W3C//DTD SVG 20010904//EN"
 "http://www.w3.org/TR/2001/REC-SVG-20010904/DTD/svg10.dtd">
<svg version="1.0" xmlns="http://www.w3.org/2000/svg"
 width="1919.000000pt" height="1580.000000pt" viewBox="0 0 1919.000000 1580.000000"
 preserveAspectRatio="xMidYMid meet">

<g transform="translate(0.000000,1580.000000) scale(0.100000,-0.100000)"
fill="#fff" stroke="none">
<path d="M11834 15562 l-289 -167 -3 -340 -2 -340 205 -119 205 -118 0 -696 0
-697 -405 -405 -405 -405 0 -828 c0 -950 13 -858 -104 -742 -112 110 -189 244
-227 399 -18 71 -22 129 -29 466 -9 416 -13 450 -69 574 -105 232 -320 397
-570 437 -44 7 -231 8 -567 3 l-501 -7 -6 -3538 c-4 -1946 -10 -3544 -13
-3551 -2 -7 -99 -67 -215 -133 l-209 -120 2 -338 3 -339 249 -144 c136 -79
267 -154 290 -168 l42 -24 289 167 290 168 3 339 2 340 -207 120 -208 120 -3
1348 -2 1349 112 -7 c132 -7 323 -30 458 -54 l95 -17 0 -554 0 -554 -208 -120
-207 -120 2 -341 3 -340 289 -167 288 -167 182 105 c99 58 232 134 294 170
l112 65 0 336 0 337 -215 123 -215 124 0 509 c0 280 4 509 8 509 14 0 291 -95
377 -129 44 -18 149 -65 233 -106 l152 -74 0 -1603 0 -1604 -240 -138 -240
-138 0 -337 0 -336 291 -168 c176 -102 298 -166 307 -162 8 3 141 78 294 166
l278 161 -2 341 -3 340 -182 105 -183 106 0 1538 0 1539 88 -60 c342 -230 714
-588 973 -937 552 -744 832 -1626 806 -2544 -7 -257 -36 -506 -84 -732 l-5
-28 2250 0 c2147 0 2250 1 2254 18 3 10 -1 447 -8 972 -15 1020 -15 1031 -67
1159 -40 100 -87 170 -168 250 -113 113 -232 177 -387 207 -61 12 -154 15
-462 13 -368 -2 -389 -1 -465 20 -156 42 -301 126 -402 234 -96 101 -144 187
-227 409 l-25 68 474 2 475 3 -45 78 -45 79 45 76 44 77 -543 3 -542 2 -77
163 c-100 214 -121 287 -121 442 -1 85 5 141 18 193 l18 72 1347 0 1346 -1
120 -209 119 -210 340 2 340 3 167 290 167 289 -23 41 c-13 22 -88 153 -168
290 l-144 250 -339 3 -339 2 -120 -210 -120 -210 -1245 0 -1244 0 54 57 c30
32 127 132 216 223 162 167 201 215 247 305 52 103 69 173 74 305 5 133 -5
200 -47 313 -51 135 -80 167 -804 872 -379 369 -711 688 -740 709 -123 94
-268 140 -441 140 -144 1 -210 -15 -345 -80 -95 -46 -96 -47 -380 -333 -224
-226 -301 -297 -361 -334 -72 -45 -195 -96 -266 -112 l-33 -7 0 239 0 238 405
405 405 405 0 776 0 777 185 107 185 107 -2 340 -3 341 -275 160 c-151 88
-283 162 -292 164 -10 3 -134 -62 -308 -162 l-290 -168 0 -336 0 -336 240
-139 240 -138 0 -676 0 -677 -405 -405 -405 -405 0 -302 c0 -236 -3 -303 -12
-303 -32 0 -106 28 -263 97 -154 69 -445 186 -520 210 l-30 10 -3 836 -2 837
405 401 405 402 0 761 1 761 219 125 220 125 -3 339 -2 338 -250 145 c-137 79
-268 155 -291 168 l-41 24 -289 -167z m458 -227 l158 -90 0 -191 0 -191 -162
-93 -162 -93 -61 32 c-33 18 -107 60 -165 95 l-105 62 0 188 0 188 160 94 c88
51 165 92 170 91 6 -1 81 -42 167 -92z m1082 -1521 l166 -96 0 -187 0 -187
-166 -96 -166 -96 -161 93 -162 94 0 192 0 191 160 94 c88 51 161 93 162 94 1
0 76 -43 167 -96z m-2992 -7125 l158 -92 -2 -190 -3 -191 -162 -94 -161 -93
-164 94 -163 95 -3 189 -2 188 157 92 c87 50 164 92 172 92 8 1 85 -40 173
-90z m-1000 -1508 l153 -89 3 -194 2 -193 -161 -93 -162 -93 -163 93 -163 93
-1 192 0 191 157 91 c87 50 163 91 170 91 6 0 80 -40 165 -89z m2032 -1017
l166 -96 0 -187 0 -187 -166 -96 -167 -96 -161 94 -161 93 0 192 0 193 160 93
c88 51 161 93 161 93 1 0 77 -43 168 -96z"/>
<path d="M14 3688 c3 -13 133 -374 288 -803 l283 -780 214 0 213 0 50 140 c27
77 53 144 58 148 4 5 31 -59 61 -142 l54 -151 211 0 c193 0 212 2 219 18 4 9
133 365 287 791 154 426 282 780 285 788 4 11 -31 13 -207 11 l-213 -3 -183
-505 c-101 -278 -184 -507 -184 -510 -1 -3 -75 200 -166 450 -112 308 -174
466 -193 490 -15 19 -47 45 -71 57 -40 21 -56 23 -202 23 -87 0 -158 -4 -158
-9 0 -5 57 -165 126 -356 l126 -348 -48 -131 c-26 -72 -51 -142 -56 -156 -9
-22 -13 -15 -44 70 -19 52 -103 283 -186 513 l-151 417 -209 0 -210 0 6 -22z"/>
<path d="M2310 2905 l0 -805 610 0 610 0 0 195 0 195 -395 0 -395 0 0 100 0
100 210 0 210 0 0 195 0 195 -210 0 -210 0 0 119 0 119 298 4 c257 3 302 6
336 21 66 29 107 67 132 121 20 43 24 67 24 149 l0 97 -610 0 -610 0 0 -805z"/>
<path d="M3650 2905 l0 -805 610 0 610 0 0 195 0 195 -400 0 -400 0 0 100 0
100 215 0 215 0 0 195 0 195 -215 0 -215 0 0 119 0 119 303 4 c214 3 311 7
332 16 57 24 106 66 133 111 24 41 27 59 31 154 l3 107 -611 0 -611 0 0 -805z"/>
<path d="M4988 3253 c-2 -252 -2 -614 0 -805 l3 -348 210 0 209 0 0 309 c0
251 3 311 14 320 11 9 48 -30 195 -212 194 -241 234 -278 374 -342 128 -59
171 -67 407 -72 l215 -5 -81 84 c-201 207 -804 848 -804 855 0 5 75 82 166
173 91 91 238 240 326 333 l160 167 -298 -1 -299 -1 -185 -201 -185 -200 -3
201 -2 202 -210 0 -209 0 -3 -457z"/>
<path d="M7735 3696 c-139 -45 -243 -148 -280 -278 -14 -49 -16 -118 -13 -535
l3 -478 31 -65 c53 -112 152 -191 279 -225 83 -21 506 -22 588 0 112 29 196
86 251 170 66 99 67 108 64 647 l-3 483 -32 66 c-41 82 -111 150 -201 192
l-67 32 -290 2 c-215 2 -300 -1 -330 -11z m505 -791 l0 -415 -190 0 -190 0 0
415 0 415 190 0 190 0 0 -415z"/>
<path d="M8820 2905 l0 -805 210 0 210 0 0 295 0 295 215 0 215 0 0 195 0 195
-215 0 -215 0 0 119 0 119 303 4 c341 3 354 6 429 84 51 53 68 108 68 215 l0
89 -610 0 -610 0 0 -805z"/>
<path d="M10780 1330 l0 -1280 3480 0 3480 0 0 1280 0 1280 -3480 0 -3480 0 0
-1280z m1429 775 c142 -34 270 -125 322 -230 23 -47 24 -62 27 -248 3 -192 2
-199 -22 -252 -48 -107 -147 -188 -284 -233 -73 -24 -90 -26 -349 -30 l-273
-4 0 -94 0 -94 465 0 465 0 0 -190 0 -190 -716 0 -715 0 3 327 c3 317 4 330
26 374 51 105 141 178 279 226 76 27 84 27 351 31 l272 4 0 119 0 119 -215 0
-215 0 0 -50 0 -50 -250 0 -250 0 0 240 0 240 508 0 c418 0 518 -3 571 -15z
m1969 -622 l-3 -638 -28 -57 c-46 -95 -140 -170 -277 -221 -53 -21 -75 -22
-593 -25 l-538 -3 3 633 3 633 27 58 c53 112 179 206 324 241 47 11 165 15
572 15 l513 1 -3 -637z m1312 610 c134 -50 230 -125 279 -218 25 -48 26 -57
29 -240 3 -175 2 -195 -18 -248 -31 -82 -115 -166 -213 -213 -110 -52 -193
-63 -464 -64 l-233 0 0 -95 0 -95 465 0 465 0 0 -190 0 -190 -716 0 -715 0 3
333 3 332 30 53 c38 70 120 144 200 182 103 49 185 60 456 60 l239 0 0 120 0
120 -215 0 -215 0 0 -50 0 -50 -250 0 -250 0 0 240 0 241 533 -3 c512 -3 534
-4 587 -25z m970 -283 l0 -310 215 0 215 0 0 310 0 310 250 0 250 0 0 -791 0
-791 -139 4 c-135 3 -140 4 -207 38 -75 38 -126 95 -144 158 -5 20 -10 112
-10 205 l0 167 -465 0 -465 0 0 505 0 505 250 0 250 0 0 -310z"/>
<path d="M13245 1727 c-3 -6 -4 -190 -3 -407 l3 -395 218 -3 217 -2 0 410 0
410 -215 0 c-164 0 -217 -3 -220 -13z"/>
<path d="M2425 1547 c-166 -42 -267 -164 -301 -363 -23 -127 -15 -773 9 -857
43 -146 124 -246 234 -287 127 -47 310 -47 438 1 107 40 192 146 231 289 14
53 18 107 18 290 l1 225 -230 0 -230 0 -3 -105 c-4 -154 -7 -150 83 -150 l75
0 0 -39 c0 -67 -19 -143 -45 -177 -49 -64 -181 -67 -237 -5 -46 51 -49 86 -46
439 3 292 5 330 21 360 27 50 71 72 142 72 103 0 149 -45 163 -158 l7 -57 148
-3 c132 -2 148 -1 154 15 11 28 -13 204 -37 266 -40 107 -119 186 -227 228
-47 18 -82 23 -188 25 -82 2 -148 -1 -180 -9z"/>
<path d="M9495 1546 c-78 -20 -120 -41 -169 -86 -55 -51 -87 -103 -117 -195
-22 -67 -23 -84 -27 -450 -3 -312 -1 -393 12 -453 39 -188 142 -302 306 -343
76 -18 240 -16 320 5 77 20 161 74 206 133 34 45 69 128 85 203 12 56 24 428
15 464 l-6 26 -228 -2 -227 -3 0 -125 0 -125 78 -3 79 -3 -7 -72 c-9 -90 -34
-151 -72 -170 -100 -52 -213 -13 -242 82 -7 25 -11 147 -11 362 0 293 2 328
19 364 28 62 53 79 125 83 73 5 125 -14 151 -55 9 -13 22 -55 29 -91 l12 -67
147 -3 146 -3 7 25 c9 35 -13 189 -36 247 -72 191 -203 270 -441 268 -57 0
-126 -6 -154 -13z"/>
<path d="M108 1529 c-16 -9 -18 -28 -18 -157 0 -102 4 -152 12 -160 9 -9 105
-12 369 -12 197 0 364 3 373 6 24 9 24 319 0 328 -28 11 -718 6 -736 -5z"/>
<path d="M1033 1533 c-7 -2 -13 -13 -13 -24 0 -20 600 -1415 626 -1456 14 -22
20 -23 157 -23 98 0 147 4 155 12 9 9 12 187 12 739 0 648 -2 729 -16 743 -20
21 -250 23 -277 4 -15 -12 -17 -50 -19 -400 l-3 -388 -154 394 c-126 325 -157
395 -175 400 -26 7 -276 6 -293 -1z"/>
<path d="M3218 1529 c-17 -9 -18 -55 -18 -742 0 -557 3 -736 12 -745 13 -13
262 -18 292 -6 14 6 16 80 16 745 0 720 0 739 -19 749 -25 13 -260 13 -283 -1z"/>
<path d="M3693 1533 c-7 -2 -13 -12 -13 -21 0 -17 616 -1447 633 -1469 7 -10
51 -13 157 -13 126 0 149 2 154 16 3 9 6 344 6 744 0 711 0 730 -19 740 -25
13 -251 13 -271 0 -13 -8 -16 -67 -20 -396 l-5 -386 -149 383 c-82 211 -156
390 -164 397 -16 12 -281 17 -309 5z"/>
<path d="M4766 1524 c-13 -12 -16 -41 -16 -150 0 -75 5 -144 10 -155 10 -18
25 -19 380 -19 355 0 370 1 380 19 5 11 10 80 10 155 0 109 -3 138 -16 150
-13 14 -61 16 -374 16 -313 0 -361 -2 -374 -16z"/>
<path d="M5663 1533 c-10 -3 -13 -46 -13 -163 0 -135 2 -159 16 -164 9 -3 176
-6 373 -6 264 0 360 3 369 12 8 8 12 58 12 160 0 135 -2 148 -19 158 -20 10
-713 14 -738 3z"/>
<path d="M6553 1534 c-10 -4 -13 -48 -13 -169 0 -139 2 -164 16 -169 9 -3 116
-6 238 -6 210 0 224 -1 266 -22 108 -55 123 -249 26 -326 -31 -24 -119 -45
-168 -40 l-33 3 -5 165 -5 165 -150 0 -150 0 -3 -539 c-1 -396 1 -542 9 -553
9 -11 42 -13 153 -11 l141 3 3 211 2 212 73 4 c39 3 72 4 73 4 0 -1 34 -98 75
-216 l74 -215 163 -3 c144 -2 163 -1 169 14 4 10 -36 122 -101 281 l-106 265
30 34 c71 81 109 195 117 349 9 193 -38 338 -142 433 -114 104 -186 122 -500
128 -132 2 -246 1 -252 -2z"/>
<path d="M7622 1532 c-10 -7 -12 -164 -10 -753 l3 -744 145 -3 c127 -2 146 -1
157 15 10 13 13 175 13 739 0 644 -2 724 -16 738 -12 13 -41 16 -147 16 -73 0
-138 -4 -145 -8z"/>
<path d="M8096 1527 c-18 -13 1 -59 299 -748 175 -404 323 -737 329 -741 6 -5
76 -7 156 -5 l145 2 3 744 c2 589 0 746 -10 753 -7 4 -70 8 -139 8 -94 0 -129
-3 -138 -13 -7 -10 -12 -136 -13 -403 l-3 -389 -150 385 c-82 212 -158 393
-167 402 -15 15 -38 18 -156 18 -100 0 -143 -4 -156 -13z"/>
<path d="M1025 1288 c-3 -7 -4 -292 -3 -633 l3 -620 145 0 145 0 3 318 2 318
-136 315 c-75 173 -141 314 -146 314 -5 0 -11 -6 -13 -12z"/>
<path d="M3687 1294 c-4 -4 -7 -288 -7 -630 l0 -624 23 -5 c12 -3 78 -4 147
-3 l125 3 3 322 2 321 -133 308 c-74 169 -138 309 -144 311 -5 2 -12 0 -16 -3z"/>
<path d="M8086 1284 c-11 -29 -7 -1214 4 -1235 10 -17 22 -19 143 -19 90 0
137 4 145 12 9 9 12 93 12 317 l0 306 -131 305 c-72 168 -136 311 -141 318
-14 16 -25 15 -32 -4z"/>
<path d="M126 1124 c-3 -9 -6 -253 -6 -544 0 -434 2 -530 14 -539 9 -8 116
-11 372 -9 l359 3 3 162 2 163 -212 2 -213 3 -3 137 -3 138 178 2 178 3 0 145
0 145 -177 3 -178 2 0 100 0 100 -154 0 c-131 0 -155 -2 -160 -16z"/>
<path d="M4792 588 l3 -553 360 -3 c330 -2 361 -1 373 15 13 18 18 266 6 297
-5 14 -34 16 -215 16 l-209 0 0 140 0 140 174 0 c149 0 175 2 180 16 8 20 8
248 0 268 -5 14 -31 16 -180 16 l-174 0 0 84 c0 46 -3 91 -6 100 -5 14 -29 16
-160 16 l-154 0 2 -552z"/>
<path d="M5687 1134 c-4 -4 -7 -251 -7 -550 0 -485 2 -542 16 -548 9 -3 172
-6 364 -6 284 0 350 3 359 14 8 9 11 61 9 162 l-3 149 -212 3 -213 2 0 140 0
140 175 0 c206 0 187 -18 183 170 l-3 125 -177 3 -177 2 -3 98 -3 97 -151 3
c-82 1 -153 -1 -157 -4z"/>
</g>
</svg>
